<svg version="1.2" xmlns="http://www.w3.org/2000/svg" viewBox="0 0 2122 2122" width="360" height="360">
	<title>26560709_DJV FEC 287-33</title>
	<style>
		.s0 { fill: #979797 } 
		.s1 { fill: #939393 } 
		.s2 { fill: #9e9e9f } 
		.s3 { fill: #727272 } 
		.s4 { fill: #aeaeaf } 
		.s5 { fill: #ffffff } 
		.s6 { fill: #000000 } 
	</style>
	<g id="Layer 1">
		<path class="s0" d="m1161.9 1320.9v46.1h-40.5v-46.1z"/>
		<path class="s0" d="m1202.3 1136.3v46.1h-40.4v-46.1z"/>
		<path class="s0" d="m1161.9 1044v46.2h-40.5v-46.2z"/>
		<path class="s0" d="m1202.3 859.4v46.2h-40.4v-46.2z"/>
		<path class="s0" d="m1202.3 721v46.1h-40.4v-46.1z"/>
		<path class="s0" d="m959.6 721v46.1 46.2 46.1 46.2 46.1 46.2 46.1 46.2 46.1 46.1 46.2 46.1 46.2 46.1 46.2 46.1 46.2h40.4v-46.2-46.1-46.2-46.1-46.2-46.1-46.2-46.1-46.1-46.2-46.1-46.2-46.1-46.2-46.1-46.2-46.1-46.1h-40.4z"/>
		<path class="s1" d="m1202.3 674.9h-40.4-40.5-40.4-40.5-40.5v46.1 46.1 46.2 46.1 46.2 46.1 46.2 46.1 46.2 46.1 46.1 46.2 46.1 46.2 46.1 46.2 46.1 46.2h40.5 40.5 40.4 40.5 40.4 40.5 40.4v-46.2h-40.4v-46.1-46.2-46.1-46.2-46.1-46.2-46.1-46.1-46.2-46.1-46.2-46.1-46.2-46.1-46.2-46.1h40.4v-46.1h-40.4zm-40.5 415.3h-40.4v-46.2h40.4zm0 276.9h-40.4v-46.2h40.4zm-121.3 92.3v-46.1-46.2-46.1-46.1-46.2-46.1-46.2-46.1-46.2-46.1-46.2-46.1-46.1-46.2-46.1-46.2h40.4v46.2 46.1 46.2 46.1 46.1 46.2 46.1 46.2 46.1 46.2 46.1 46.2 46.1 46.1 46.2 46.1zm161.8-276.8h-40.4v-46.2h40.4zm0-276.8h-40.4v-46.2h40.4zm0-138.4h-40.4v-46.2h40.4z"/>
		<path class="s1" d="m1323.7 536.4h-40.4-40.5-40.5-40.4-40.5-40.4-40.5-40.5-40.4-40.5-40.4v46.2 46.1h40.4 40.5 40.4 40.5 40.5 40.4 40.5 40.4 40.5 40.5 40.4 40.5 40.4v-46.1-46.2h-40.4z"/>
		<path class="s2" d="m838.2 582.6v46.1h40.5v-46.1-46.2h-40.5z"/>
		<path class="s3" d="m1323.7 674.9h-40.4v46.1 46.1 46.2h40.4v46.1h-40.4v46.2 46.1 46.2h40.4v46.1h-40.4v46.2 46.1 46.1 46.2 46.1 46.2 46.1 46.2 46.1 46.2h40.4 40.5v-46.2h40.4v-46.1-46.2-46.1-46.2h-40.4v-46.1h40.4v-46.2-46.1-46.1-46.2-46.1-46.2-46.1-46.2-46.1h-40.4v-46.2h40.4v-46.1-46.1h-40.4zm40.4 738.3h-40.4v-46.2h40.4zm0-461.4h-40.4v-46.2h40.4z"/>
		<path class="s3" d="m1404.6 536.4v46.2 46.1h40.5 40.4v-46.1-46.2h-40.4z"/>
		<path class="s3" d="m1121.4 444.1h-40.4-40.5-40.5-40.4v46.2h40.4 40.5 40.5 40.4 40.5 40.4v-46.2h-40.4z"/>
		<path class="s4" d="m878.7 674.9h-40.5-40.4-40.5-40.5v46.1 46.1 46.2 46.1 46.2 46.1 46.2 46.1 46.2 46.1 46.1 46.2 46.1 46.2 46.1 46.2 46.1h40.5v46.2h40.5 40.4 40.5 40.4 40.5v-46.2-46.1-46.2-46.1-46.2-46.1-46.2-46.1-46.1-46.2-46.1-46.2-46.1-46.2-46.1-46.2-46.1-46.1h-40.5zm-121.3 692.1v-46.1-46.2-46.1-46.2-46.1-46.1-46.2-46.1-46.2-46.1-46.2-46.1h40.4v46.1 46.2 46.1 46.2 46.1 46.2 46.1 46.1 46.2 46.1 46.2 46.1 46.2h-40.4zm80.9 92.2v-46.1-46.1-46.2-46.1-46.2-46.1-46.2-46.1-46.1-46.2-46.1-46.2-46.1-46.2-46.1-46.2h40.4v46.2 46.1 46.2 46.1 46.2 46.1 46.2 46.1 46.1 46.2 46.1 46.2 46.1 46.2 46.1 46.1z"/>
		<path class="s4" d="m797.8 628.7h40.4v-46.1-46.2h-40.4-40.5-40.5v46.2 46.1h40.5z"/>
		<path class="s4" d="m635.9 582.6v46.1h40.5v-46.1-46.2h-40.5z"/>
		<path class="s4" d="m959.6 444.1v46.2h-40.5v-46.2z"/>
		<path class="s5" d="m757.3 859.4v46.2 46.1 46.2 46.1 46.2 46.1 46.1 46.2 46.1 46.2 46.1 46.2h40.5v-46.2-46.1-46.2-46.1-46.2-46.1-46.1-46.2-46.1-46.2-46.1-46.2-46.1h-40.5z"/>
		<path class="s5" d="m676.4 582.6v46.1h40.4v-46.1-46.2h-40.4z"/>
		<path class="s6" d="m1283.3 1505.5h-40.5-40.5-40.4-40.5-40.4-40.5-40.5-40.4-40.5-40.4-40.5-40.4-40.5v46.1h40.5 40.4 40.5 24.6 15.8 40.5 40.4 40.5 40.5 40.4 40.5 29.7 10.7 40.5 40.5 40.4 40.5v-46.1h-40.5z"/>
		<path id="Layer copy 4" class="s0" d="m1161.9 1320.9v46.1h-40.5v-46.1z"/>
		<path id="Layer copy 5" class="s0" d="m1202.3 1136.3v46.1h-40.4v-46.1z"/>
		<path id="Layer copy 6" class="s0" d="m1161.9 1044v46.2h-40.5v-46.2z"/>
		<path id="Layer copy 7" class="s0" d="m1202.3 859.4v46.2h-40.4v-46.2z"/>
		<path id="Layer copy 8" class="s0" d="m1202.3 721v46.1h-40.4v-46.1z"/>
		<path id="Layer copy 9" class="s0" d="m959.6 721v46.1 46.2 46.1 46.2 46.1 46.2 46.1 46.2 46.1 46.1 46.2 46.1 46.2 46.1 46.2 46.1 46.2h40.4v-46.2-46.1-46.2-46.1-46.2-46.1-46.2-46.1-46.1-46.2-46.1-46.2-46.1-46.2-46.1-46.2-46.1-46.1h-40.4z"/>
		<path id="Layer copy 10" class="s1" d="m1202.3 674.9h-40.4-40.5-40.4-40.5-40.5v46.1 46.1 46.2 46.1 46.2 46.1 46.2 46.1 46.2 46.1 46.1 46.2 46.1 46.2 46.1 46.2 46.1 46.2h40.5 40.5 40.4 40.5 40.4 40.5 40.4v-46.2h-40.4v-46.1-46.2-46.1-46.2-46.1-46.2-46.1-46.1-46.2-46.1-46.2-46.1-46.2-46.1-46.2-46.1h40.4v-46.1h-40.4zm-40.5 415.3h-40.4v-46.2h40.4zm0 276.9h-40.4v-46.2h40.4zm-121.3 92.3v-46.1-46.2-46.1-46.1-46.2-46.1-46.2-46.1-46.2-46.1-46.2-46.1-46.1-46.2-46.1-46.2h40.4v46.2 46.1 46.2 46.1 46.1 46.2 46.1 46.2 46.1 46.2 46.1 46.2 46.1 46.1 46.2 46.1zm161.8-276.8h-40.4v-46.2h40.4zm0-276.8h-40.4v-46.2h40.4zm0-138.4h-40.4v-46.2h40.4z"/>
		<path id="Layer copy 11" class="s1" d="m1323.7 536.4h-40.4-40.5-40.5-40.4-40.5-40.4-40.5-40.5-40.4-40.5-40.4v46.2 46.1h40.4 40.5 40.4 40.5 40.5 40.4 40.5 40.4 40.5 40.5 40.4 40.5 40.4v-46.1-46.2h-40.4z"/>
		<path id="Layer copy 12" class="s2" d="m838.2 582.6v46.1h40.5v-46.1-46.2h-40.5z"/>
		<path id="Layer copy 13" class="s3" d="m1323.7 674.9h-40.4v46.1 46.1 46.2h40.4v46.1h-40.4v46.2 46.1 46.2h40.4v46.1h-40.4v46.2 46.1 46.1 46.2 46.1 46.2 46.1 46.2 46.1 46.2h40.4 40.5v-46.2h40.4v-46.1-46.2-46.1-46.2h-40.4v-46.1h40.4v-46.2-46.1-46.1-46.2-46.1-46.2-46.1-46.2-46.1h-40.4v-46.2h40.4v-46.1-46.1h-40.4zm40.4 738.3h-40.4v-46.2h40.4zm0-461.4h-40.4v-46.2h40.4z"/>
		<path id="Layer copy 14" class="s3" d="m1404.6 536.4v46.2 46.1h40.5 40.4v-46.1-46.2h-40.4z"/>
		<path id="Layer copy 15" class="s3" d="m1121.4 444.1h-40.4-40.5-40.5-40.4v46.2h40.4 40.5 40.5 40.4 40.5 40.4v-46.2h-40.4z"/>
		<path id="Layer copy 16" class="s4" d="m878.7 674.9h-40.5-40.4-40.5-40.5v46.1 46.1 46.2 46.1 46.2 46.1 46.2 46.1 46.2 46.1 46.1 46.2 46.1 46.2 46.1 46.2 46.1h40.5v46.2h40.5 40.4 40.5 40.4 40.5v-46.2-46.1-46.2-46.1-46.2-46.1-46.2-46.1-46.1-46.2-46.1-46.2-46.1-46.2-46.1-46.2-46.1-46.1h-40.5zm-121.3 692.1v-46.1-46.2-46.1-46.2-46.1-46.1-46.2-46.1-46.2-46.1-46.2-46.1h40.4v46.1 46.2 46.1 46.2 46.1 46.2 46.1 46.1 46.2 46.1 46.2 46.1 46.2h-40.4zm80.9 92.2v-46.1-46.1-46.2-46.1-46.2-46.1-46.2-46.1-46.1-46.2-46.1-46.2-46.1-46.2-46.1-46.2h40.4v46.2 46.1 46.2 46.1 46.2 46.1 46.2 46.1 46.1 46.2 46.1 46.2 46.1 46.2 46.1 46.1z"/>
		<path id="Layer copy 17" class="s4" d="m797.8 628.7h40.4v-46.1-46.2h-40.4-40.5-40.5v46.2 46.1h40.5z"/>
		<path id="Layer copy 18" class="s4" d="m635.9 582.6v46.1h40.5v-46.1-46.2h-40.5z"/>
		<path id="Layer copy 19" class="s4" d="m959.6 444.1v46.2h-40.5v-46.2z"/>
		<path id="Layer copy 20" class="s5" d="m757.3 859.4v46.2 46.1 46.2 46.1 46.2 46.1 46.1 46.2 46.1 46.2 46.1 46.2h40.5v-46.2-46.1-46.2-46.1-46.2-46.1-46.1-46.2-46.1-46.2-46.1-46.2-46.1h-40.5z"/>
		<path id="Layer copy 21" class="s5" d="m676.4 582.6v46.1h40.4v-46.1-46.2h-40.4z"/>
		<path id="Layer copy 22" class="s6" d="m1283.3 1505.5h-40.5-40.5-40.4-40.5-40.4-40.5-40.5-40.4-40.5-40.4-40.5-40.4-40.5v46.1h40.5 40.4 40.5 24.6 15.8 40.5 40.4 40.5 40.5 40.4 40.5 29.7 10.7 40.5 40.5 40.4 40.5v-46.1h-40.5z"/>
		<path id="Layer copy 23" class="s6" d="m1364.2 1505.5h40.4v-40.4-5.8h-40.4z"/>
		<path id="Layer copy 24" class="s6" d="m716.8 1459.3v21.6 24.6h40.5v-46.2z"/>
		<path id="Layer copy 25" class="s6" d="m1364.2 1367v46.2h-40.5v-46.2z"/>
		<path id="Layer copy 26" class="s6" d="m1323.7 997.9h-40.4v-46.2-46.1-46.2h40.4v-46.1h-40.4v-46.2-46.1h-40.5v46.1 46.2 46.1 46.2 46.1 46.2 46.1 46.2 46.1 46.1 46.2 46.1 46.2 46.1 46.2 46.1h40.5v-46.1-46.2-46.1-46.2-46.1-46.2-46.1-46.1-46.2h40.4z"/>
		<path id="Layer copy 27" class="s6" d="m1364.2 905.6v46.1h-40.5v-46.1z"/>
		<path id="Layer copy 28" class="s6" d="m1040.5 767.1v46.2 46.1 46.2 46.1 46.2 46.1 46.2 46.1 46.1 46.2 46.1 46.2 46.1 46.2 46.1h40.5v-46.1-46.2-46.1-46.2-46.1-46.2-46.1-46.1-46.2-46.1-46.2-46.1-46.2-46.1-46.2-46.1h-40.5z"/>
		<path id="Layer copy 29" class="s6" d="m838.2 767.1v46.2 46.1 46.2 46.1 46.2 46.1 46.2 46.1 46.1 46.2 46.1 46.2 46.1 46.2 46.1h40.5v-46.1-46.2-46.1-46.2-46.1-46.2-46.1-46.1-46.2-46.1-46.2-46.1-46.2-46.1-46.2-46.1h-40.5z"/>
		<path id="Layer copy 30" class="s6" d="m1485.5 490.3h-40.4-40.5-40.4-40.5-40.4-40.5v-46.2-46.1h-40.5-40.4-40.5-40.4-40.5-40.5-40.4-40.5-40.4v46.1 46.2h-40.5-40.4-40.5-40.5-40.4-40.5-40.4v46.1h-40.5v46.2 46.1h40.5v46.2h40.4 40.5v46.1 46.1 46.2 46.1 46.2 46.1 46.2 46.1 46.2 46.1 46.1 46.2 46.1 46.2 46.1 46.2 43.1 3h4.7 35.7v-46.1-46.2-46.1-46.2-46.1-46.2-46.1-46.1-46.2-46.1-46.2-46.1-46.2-46.1-46.2-46.1-46.1h40.5 40.4 40.5 40.5 40.4 40.5 40.4 40.5 40.5 40.4 40.5 40.4 40.5 40.4 40.5 40.5 40.4v46.1 46.1h-40.4v46.2h40.4v46.1 46.2 46.1 46.2 46.1 46.2 46.1 46.1 46.2h-40.4v46.1h40.4v46.2 46.1 46.2 46.1h9.1 31.4v-21.4-24.7-46.2-46.1-46.2-46.1-46.2-46.1-46.1-46.2-46.1-46.2-46.1-46.2-46.1-46.2-46.1-46.1h40.4 40.5v-46.2h40.4v-46.1-46.2h-40.4v-46.1zm-566.4-46.2h40.4 40.5 40.4 40.5 40.5 40.4 40.5v46.2h-40.5-40.4-40.5-40.5-40.4-40.5-40.4zm566.4 138.4v46.2h-40.5-40.4-40.5-40.4-40.5-40.5-40.4-40.5-40.4-40.5-40.5-40.4-40.5-40.4-40.5-40.4-40.5-40.5-40.4-40.5-40.4v-46.2-46.1h40.4 40.5 40.4 40.5 40.5 40.4 40.5 40.4 40.5 40.4 40.5 40.5 40.4 40.5 40.4 40.5 40.5 40.4 40.5 40.4 40.5z"/>
		<path class="s6" d="m1364.2 1505.5h40.4v-40.4-5.8h-40.4z"/>
		<path class="s6" d="m716.8 1459.3v21.6 24.6h40.5v-46.2z"/>
		<path class="s6" d="m1364.2 1367v46.2h-40.5v-46.2z"/>
		<path class="s6" d="m1323.7 997.9h-40.4v-46.2-46.1-46.2h40.4v-46.1h-40.4v-46.2-46.1h-40.5v46.1 46.2 46.1 46.2 46.1 46.2 46.1 46.2 46.1 46.1 46.2 46.1 46.2 46.1 46.2 46.1h40.5v-46.1-46.2-46.1-46.2-46.1-46.2-46.1-46.1-46.2h40.4z"/>
		<path class="s6" d="m1364.2 905.6v46.1h-40.5v-46.1z"/>
		<path class="s6" d="m1040.5 767.1v46.2 46.1 46.2 46.1 46.2 46.1 46.2 46.1 46.1 46.2 46.1 46.2 46.1 46.2 46.1h40.5v-46.1-46.2-46.1-46.2-46.1-46.2-46.1-46.1-46.2-46.1-46.2-46.1-46.2-46.1-46.2-46.1h-40.5z"/>
		<path class="s6" d="m838.2 767.1v46.2 46.1 46.2 46.1 46.2 46.1 46.2 46.1 46.1 46.2 46.1 46.2 46.1 46.2 46.1h40.5v-46.1-46.2-46.1-46.2-46.1-46.2-46.1-46.1-46.2-46.1-46.2-46.1-46.2-46.1-46.2-46.1h-40.5z"/>
		<path class="s6" d="m1485.5 490.3h-40.4-40.5-40.4-40.5-40.4-40.5v-46.2-46.1h-40.5-40.4-40.5-40.4-40.5-40.5-40.4-40.5-40.4v46.1 46.2h-40.5-40.4-40.5-40.5-40.4-40.5-40.4v46.1h-40.5v46.2 46.1h40.5v46.2h40.4 40.5v46.1 46.1 46.2 46.1 46.2 46.1 46.2 46.1 46.2 46.1 46.1 46.2 46.1 46.2 46.1 46.2 43.1 3h4.7 35.7v-46.1-46.2-46.1-46.2-46.1-46.2-46.1-46.1-46.2-46.1-46.2-46.1-46.2-46.1-46.2-46.1-46.1h40.5 40.4 40.5 40.5 40.4 40.5 40.4 40.5 40.5 40.4 40.5 40.4 40.5 40.4 40.5 40.5 40.4v46.1 46.1h-40.4v46.2h40.4v46.1 46.2 46.1 46.2 46.1 46.2 46.1 46.1 46.2h-40.4v46.1h40.4v46.2 46.1 46.2 46.1h9.1 31.4v-21.4-24.7-46.2-46.1-46.2-46.1-46.2-46.1-46.1-46.2-46.1-46.2-46.1-46.2-46.1-46.2-46.1-46.1h40.4 40.5v-46.2h40.4v-46.1-46.2h-40.4v-46.1zm-566.4-46.2h40.4 40.5 40.4 40.5 40.5 40.4 40.5v46.2h-40.5-40.4-40.5-40.5-40.4-40.5-40.4zm566.4 138.4v46.2h-40.5-40.4-40.5-40.4-40.5-40.5-40.4-40.5-40.4-40.5-40.5-40.4-40.5-40.4-40.5-40.4-40.5-40.5-40.4-40.5-40.4v-46.2-46.1h40.4 40.5 40.4 40.5 40.5 40.4 40.5 40.4 40.5 40.4 40.5 40.5 40.4 40.5 40.4 40.5 40.5 40.4 40.5 40.4 40.5z"/>
	</g>
</svg>